<svg width="50mm" height="50mm" version="1.1" viewBox="0 0 50 50" xmlns="http://www.w3.org/2000/svg">
 <defs>
  <clipPath id="clipPath5">
   <path transform="translate(-94.383 -109.81)" d="m0 500h500v-500h-500z"/>
  </clipPath>
  <clipPath id="clipPath7">
   <path transform="translate(-101.81 -185.98)" d="m0 500h500v-500h-500z"/>
  </clipPath>
  <clipPath id="clipPath9">
   <path transform="translate(-123.22 -215.31)" d="m0 500h500v-500h-500z"/>
  </clipPath>
  <clipPath id="clipPath11">
   <path transform="translate(-109.84 -209.62)" d="m0 500h500v-500h-500z"/>
  </clipPath>
  <clipPath id="clipPath13">
   <path transform="translate(-92.39 -186.54)" d="m0 500h500v-500h-500z"/>
  </clipPath>
  <clipPath id="clipPath15">
   <path transform="translate(-112.96 -194.84)" d="m0 500h500v-500h-500z"/>
  </clipPath>
  <clipPath id="clipPath17">
   <path transform="translate(-162.65 -162.5)" d="m0 500h500v-500h-500z"/>
  </clipPath>
 </defs>
 <g>
  <path transform="matrix(.35278 0 0 -.35278 13.175 42.815)" d="m0 0c4.986 0.697 9.001 3.697 10.769 6.361 2.338 3.526 3.931 7.508 5.303 11.287 2.47 6.806 6.328 13.232 9.13 17.423 6.817 10.201 17.583 17.584 28.796 20.128-5.66 17.789-10.341 27.819-30.547 27.819-3.426 0-7.3-0.174-9.574-0.648-6.33-1.313-9.591-0.943-15.978-7.048 0.661 0.63 3.551 0.657 4.508 0.896 1.028 0.259 2.032 0.582 3.036 0.919 0.269 0.089 0.535 0.18 0.804 0.269 2.155 0.718 3.925 1.219 6.074 0.18 1.484-0.718 2.816-1.709 3.952-2.89 3.868-4.021 5.452-10.238 2.956-15.348-2.932-5.995-10.568-8.904-16.09-11.947-2.237-1.229-4.767-2.111-6.942-3.401-21.568-11.827-17.103-28.73-11.106-36.753 1.001-1.359 2.007-2.549 3.078-3.648 4.395-3.725 8.859-4.018 11.831-3.599" clip-path="url(#clipPath5)" fill="#c3461d"/>
  <path transform="matrix(.35278 0 0 -.35278 15.797 15.942)" d="m0 0c3.098 0 6.071-0.521 8.842-1.478 10.609-3.664 18.225-13.734 18.225-25.589 0-1.363-0.112-2.697-0.307-4.005 5.84 4.952 12.73 8.492 19.806 10.097-5.66 17.789-10.341 27.819-30.547 27.819-3.425 0-5.72-1.341-7.994-1.814-5.151-3.997-10.224-2.501-10.013-4.067 0.082-0.619 0.712-0.963 1.988-0.963" clip-path="url(#clipPath7)" fill="#ffc688"/>
  <g fill="#c3461d">
   <path transform="matrix(.35278 0 0 -.35278 23.347 5.5952)" d="m0 0c-6.28 5.825-10.697 5.27-14.956 5.431 0.134-1.997 0.67-5.573 1.137-8.46 5.836 3.109 11.652 3.151 13.819 3.029" clip-path="url(#clipPath9)"/>
   <path transform="matrix(.35278 0 0 -.35278 18.628 7.6031)" d="m0 0v-1e-3z" clip-path="url(#clipPath11)"/>
   <path transform="matrix(.35278 0 0 -.35278 12.472 15.745)" d="m0 0c0-1.425-0.509-2.747-1.348-3.777-1.514 1.297-2.302 3.027-3.015 4.578 1.514 0.178 2.849 0.586 4.045 1.133 0.203-0.598 0.318-1.247 0.318-1.934" clip-path="url(#clipPath13)"/>
  </g>
  <path transform="matrix(.35278 0 0 -.35278 19.73 12.82)" d="m0 0c-1.269 0-2.298 1.029-2.298 2.298s1.029 2.299 2.298 2.299 2.298-1.03 2.298-2.299-1.029-2.298-2.298-2.298m30.158 7.911c0.94 11.194-2.953 14.355-6.071 17.964-1.939-2.068-5.639-6.878-7.31-9.076-1.482 0.445-2.785 0.707-3.793 0.86-1.353 0.204-2.169 0.217-2.169 0.217s-7.119 0.906-13.944-3.087c-3.827-2.245-7.565-6.034-9.899-12.4-0.83-1.901-2.731-5.536-6.29-7.859-0.485-0.319-1.021-0.612-1.569-0.88 0.204-0.599 0.319-1.251 0.319-1.939 0-1.429-0.511-2.756-1.352-3.789 0.535-0.459 1.173-0.867 1.926-1.187 5.371-2.322 11.686 0.37 16.623 2.59 2.781 1.25 5.843 1.952 8.853 2.335 3.432 0.434 6.94 0.255 10.27-0.765 4.108-1.263 7.731-3.79 10.691-6.89 3.755-3.921 6.57-8.867 8.701-13.897 0.543 0.128 1.088 0.228 1.634 0.332 0.826 3.574 1.096 7.791 1.096 11.345 0 12.601-3.364 20.789-7.716 26.126" clip-path="url(#clipPath15)" fill="#f05a23"/>
  <path transform="matrix(.35278 0 0 -.35278 37.257 24.225)" d="m0 0c-2.512 0.512-5.111 0.781-7.774 0.781-0.533 0-1.057-0.038-1.584-0.058-11.952-1.283-24.356-8.951-31.581-19.763-2.724-4.075-6.47-10.312-8.853-16.877-1.427-3.927-3.089-8.078-5.576-11.826-2.542-3.832-7.465-6.768-12.541-7.479-0.738-0.103-1.554-0.17-2.43-0.17-0.53 0-1.084 0.028-1.654 0.083 7.129-4.09 17.055-7.348 25.802-7.348 2.726 0 5.397 0.228 8 0.662 9.527 1.587 18.111 5.96 24.888 12.253 3.016 2.8 5.674 5.978 7.897 9.462 0.669 1.433 1.45 2.802 2.339 4.093 5.125 7.453 13.708 12.342 23.436 12.342 2.934 0 5.763-0.445 8.426-1.27-4.468 12.706-15.369 22.381-28.795 25.115" clip-path="url(#clipPath17)" fill="#f05a23"/>
 </g>
</svg>
